<?xml version="1.0" encoding="UTF-8" standalone="no"?>
<!-- Created with Sodipodi ("http://www.sodipodi.com/") -->
<svg
   xmlns:dc="http://purl.org/dc/elements/1.1/"
   xmlns:cc="http://creativecommons.org/ns#"
   xmlns:rdf="http://www.w3.org/1999/02/22-rdf-syntax-ns#"
   xmlns:svg="http://www.w3.org/2000/svg"
   xmlns="http://www.w3.org/2000/svg"
   xmlns:xlink="http://www.w3.org/1999/xlink"
   xmlns:sodipodi="http://sodipodi.sourceforge.net/DTD/sodipodi-0.dtd"
   xmlns:inkscape="http://www.inkscape.org/namespaces/inkscape"
   id="svg1"
   sodipodi:version="0.32"
   width="20cm"
   height="8cm"
   sodipodi:docbase="/home/jfran/"
   sodipodi:docname="ciao1.svg"
   inkscape:version="0.46"
   inkscape:output_extension="org.inkscape.output.svg.inkscape"
   inkscape:export-filename="/home/jfran/Desktop/Work/ciao1.png"
   inkscape:export-xdpi="90"
   inkscape:export-ydpi="90">
  <metadata
     id="metadata2414">
    <rdf:RDF>
      <cc:Work
         rdf:about="">
        <dc:format>image/svg+xml</dc:format>
        <dc:type
           rdf:resource="http://purl.org/dc/dcmitype/StillImage" />
      </cc:Work>
    </rdf:RDF>
  </metadata>
  <defs
     id="defs3">
    <linearGradient
       id="linearGradient3534">
      <stop
         id="stop3536"
         offset="0"
         style="stop-color:#ffbd00;stop-opacity:1;" />
      <stop
         id="stop3538"
         offset="1"
         style="stop-color:#ffe59f;stop-opacity:1" />
    </linearGradient>
    <linearGradient
       id="linearGradient3490">
      <stop
         id="stop3492"
         offset="0"
         style="stop-color:#d38def;stop-opacity:1;" />
      <stop
         style="stop-color:#7a0ca5;stop-opacity:1;"
         offset="0.49999991"
         id="stop3494" />
      <stop
         id="stop3496"
         offset="1"
         style="stop-color:#5b007e;stop-opacity:1;" />
    </linearGradient>
    <linearGradient
       id="linearGradient3472">
      <stop
         style="stop-color:#d38def;stop-opacity:1;"
         offset="0"
         id="stop3474" />
      <stop
         id="stop3480"
         offset="0.5"
         style="stop-color:#7a0ca5;stop-opacity:1;" />
      <stop
         style="stop-color:#5b007e;stop-opacity:1;"
         offset="1"
         id="stop3476" />
    </linearGradient>
    <linearGradient
       id="linearGradient3214">
      <stop
         id="stop3216"
         offset="0"
         style="stop-color:#000000;stop-opacity:1;" />
      <stop
         id="stop3218"
         offset="1"
         style="stop-color:#000000;stop-opacity:0;" />
    </linearGradient>
    <linearGradient
       id="linearGradient3206">
      <stop
         style="stop-color:#000000;stop-opacity:1;"
         offset="0"
         id="stop3208" />
      <stop
         style="stop-color:#000000;stop-opacity:0;"
         offset="1"
         id="stop3210" />
    </linearGradient>
    <linearGradient
       id="linearGradient3188">
      <stop
         style="stop-color:#ffbd00;stop-opacity:1;"
         offset="0"
         id="stop3190" />
      <stop
         style="stop-color:#ffe79f;stop-opacity:1;"
         offset="1"
         id="stop3192" />
    </linearGradient>
    <inkscape:perspective
       sodipodi:type="inkscape:persp3d"
       inkscape:vp_x="0 : 141.73228 : 1"
       inkscape:vp_y="0 : 1000 : 0"
       inkscape:vp_z="708.66144 : 141.73228 : 1"
       inkscape:persp3d-origin="354.33072 : 94.48819 : 1"
       id="perspective2416" />
    <linearGradient
       inkscape:collect="always"
       xlink:href="#linearGradient3188"
       id="linearGradient3204"
       x1="403.5351"
       y1="540.37128"
       x2="403.5351"
       y2="363.7417"
       gradientUnits="userSpaceOnUse"
       gradientTransform="matrix(1.19565,0,0,1.0383,102.771,-288.97)" />
    <linearGradient
       inkscape:collect="always"
       xlink:href="#linearGradient3188"
       id="linearGradient3470"
       x1="230.65758"
       y1="448.67822"
       x2="444.67578"
       y2="448.67822"
       gradientUnits="userSpaceOnUse"
       gradientTransform="matrix(1.19565,0,0,1.0383,-115.924,-290.97)" />
    <radialGradient
       inkscape:collect="always"
       xlink:href="#linearGradient3472"
       id="radialGradient3478"
       cx="471.85617"
       cy="528.89661"
       fx="471.85617"
       fy="528.89661"
       r="160.05302"
       gradientTransform="matrix(1.380846,1.0986779,-0.6184165,0.7772412,66.830304,-766.45165)"
       gradientUnits="userSpaceOnUse" />
    <radialGradient
       inkscape:collect="always"
       xlink:href="#linearGradient3490"
       id="radialGradient3488"
       cx="160.8737"
       cy="383.23032"
       fx="160.8737"
       fy="383.23032"
       r="98.460442"
       gradientTransform="matrix(0.8089771,0.8804175,-1.848458,1.6984674,663.13471,-695.4577)"
       gradientUnits="userSpaceOnUse" />
  </defs>
  <sodipodi:namedview
     id="base"
     showgrid="true"
     inkscape:zoom="0.70710678"
     inkscape:cx="365.41178"
     inkscape:cy="-8.9697663"
     inkscape:window-width="996"
     inkscape:window-height="722"
     inkscape:window-x="160"
     inkscape:window-y="66"
     inkscape:current-layer="svg1" />
  <path
     style="font-size:12px;fill:url(#radialGradient3488);fill-opacity:1;fill-rule:evenodd;stroke:#240053;stroke-width:12;stroke-miterlimit:4;stroke-dasharray:none;stroke-opacity:1"
     d="M 143.03511,15.470054 C 197.78631,14.282239 232.00701,51.130468 232.00701,51.130468 C 232.00701,51.130468 187.88633,90.284764 182.5633,95.286254 C 174.35038,90.531874 161.22931,81.023124 142.06782,81.023124 C 103.10518,81.022084 71.939363,110.56276 73.308382,148.60088 C 73.79262,186.11154 104.3905,213.06788 141.74859,213.06788 C 165.32083,212.62349 179.02417,201.86878 190.77622,191.39233 C 200.35815,203.27879 221.59529,225.78498 234.17831,242.15378 C 205.90238,257.95775 184.7346,276.41768 141.66609,274.59858 C 75.825225,276.41768 12.598058,223.83817 11.62994,149.78973 C 10.26116,70.149009 70.487844,15.470054 143.03511,15.470054 z"
     id="path126"
     sodipodi:nodetypes="ccccccccccc" />
  <path
     style="font-size:12px;fill:url(#linearGradient3470);fill-opacity:1;fill-rule:evenodd;stroke:#ff7c00;stroke-width:12;stroke-linejoin:round;stroke-miterlimit:4;stroke-dasharray:none;stroke-opacity:1"
     d="M 171.52461,181.21354 C 178.36851,181.38901 229.96798,181.21458 237.22677,181.21458 C 237.71101,188.94472 233.12091,208.55302 267.34041,207.36416 C 294.0321,206.77025 309.66403,185.85993 322.23031,168.19014 C 334.79779,150.52139 344.29842,136.09317 367.56936,136.09317 C 391.1954,136.09317 409.11939,153.44524 409.31309,179.02584 C 409.40515,193.87041 402.41299,207.13366 375.73326,226.66824 C 349.05352,246.20281 302.24502,273.33567 267.34041,273.92957 C 196.16217,272.74072 170.15559,227.57156 171.52461,181.21354 z M 200.09825,75.856198 C 219.08996,75.748215 234.23047,90.570986 234.57243,109.72347 C 234.57243,128.93306 218.89507,144.03721 200.09825,144.03721 C 181.16035,143.86693 166.42038,129.50516 166.30799,109.77746 C 165.90744,91.756725 181.27752,75.918496 200.09825,75.856198 z"
     id="path135"
     sodipodi:nodetypes="cccsccsccccccc" />
  <path
     style="font-size:12px;fill:url(#radialGradient3478);fill-opacity:1;fill-rule:evenodd;stroke:#240053;stroke-width:12;stroke-miterlimit:4;stroke-dasharray:none;stroke-opacity:1"
     d="M 428.96681,250.96786 C 445.39146,265.82593 465.92436,275.33572 496.038,275.92963 C 533.09358,275.777 598.84955,235.88759 614.04746,223.54739 C 628.15852,212.42097 638.24143,197.00741 638.24143,179.28363 C 638.15893,158.96825 620.24092,139.99539 596.92814,139.41706 C 571.09253,139.56865 562.47668,154.51498 548.14442,172.11209 C 533.81097,189.71024 518.62263,209.95916 494.66898,210.55307 C 468.66239,209.36422 459.71535,194.86124 459.88274,173.70484 C 459.3985,130.40462 421.22259,82.177658 364.06574,82.177658 C 311.01475,81.211 267.04711,129.58228 268.41493,175.33809 C 267.44765,225.10277 304.57258,275.92963 368.73953,274.74078 C 393.37829,273.55296 411.17315,264.04317 428.96681,250.96786 z M 364.02509,145.73615 C 342.87284,145.73615 330.05547,161.71248 330.07699,179.32308 C 330.07699,197.70307 342.72578,213.63371 363.98443,213.67939 C 382.39864,213.67939 397.52959,199.75267 397.51046,179.77682 C 397.53079,160.8403 383.74614,146.19093 364.02509,145.73615 z"
     id="path134"
     sodipodi:nodetypes="ccccccccccccccscc" />
  <path
     style="font-size:12px;fill:url(#linearGradient3204);fill-opacity:1;fill-rule:evenodd;stroke:#ff7c00;stroke-width:12;stroke-miterlimit:4;stroke-dasharray:none;stroke-opacity:1"
     d="M 587.32729,82.177603 C 528.46783,81.534895 487.40443,133.03665 488.77345,178.4602 C 488.08954,227.44927 527.10121,276.47572 585.27436,275.92957 C 642.07969,276.57228 681.77527,228.83125 681.77527,177.27031 C 680.40625,123.78021 635.91851,82.177603 587.32729,82.177603 z M 585.49317,147.5552 C 566.47755,147.5552 551.72323,162.4735 551.88584,180.17547 C 551.88584,200.48462 567.19016,214.86507 585.65219,214.45598 C 604.25889,214.77682 620.36908,200.42855 620.20528,180.23154 C 620.02593,161.60859 603.64552,147.5552 585.49317,147.5552 z"
     id="path131"
     sodipodi:nodetypes="cccccccccc" />
</svg>
