/* XPM */
static char * clip_xpm[] = {
"24 24 214 2",
"  	c None",
". 	c #FFDDCB",
"+ 	c #FFC4A1",
"@ 	c #FFC19B",
"# 	c #FFC19C",
"$ 	c #FFC29D",
"% 	c #FFC29E",
"& 	c #FFC39F",
"* 	c #FFC3A0",
"= 	c #FFC4A0",
"- 	c #FFC5A2",
"; 	c #FFC5A3",
"> 	c #FFC6A4",
", 	c #FFC7A5",
"' 	c #FFC7A6",
") 	c #FFCFB2",
"! 	c #FFFAF6",
"~ 	c #FFB68A",
"{ 	c #FE6407",
"] 	c #FE6305",
"^ 	c #FE6306",
"/ 	c #FE6B12",
"( 	c #FE7624",
"_ 	c #FE7C2D",
": 	c #FE7928",
"< 	c #FE6406",
"[ 	c #FE7827",
"} 	c #FFDFCB",
"| 	c #FFAE7C",
"1 	c #FE6101",
"2 	c #FE6000",
"3 	c #FE670C",
"4 	c #FE9B60",
"5 	c #FECBAC",
"6 	c #FEE5D6",
"7 	c #FEEEE4",
"8 	c #FED2B7",
"9 	c #FE6F18",
"0 	c #FE701A",
"a 	c #FFDBC6",
"b 	c #FFAE7D",
"c 	c #FE7523",
"d 	c #FEBD96",
"e 	c #FFF7F3",
"f 	c #FFFDFC",
"g 	c #FEF4EF",
"h 	c #FEEEE3",
"i 	c #FEEADE",
"j 	c #FEAC7B",
"k 	c #FE7B2C",
"l 	c #FFAF7D",
"m 	c #FE6A11",
"n 	c #FEC19C",
"o 	c #FEFEFE",
"p 	c #FEEEE5",
"q 	c #FEBD95",
"r 	c #FEA067",
"s 	c #FE985B",
"t 	c #FEA36B",
"u 	c #FEBE98",
"v 	c #FEC5A3",
"w 	c #FE8B45",
"x 	c #FFDBC7",
"y 	c #FFAF7E",
"z 	c #FE995C",
"A 	c #FEF8F4",
"B 	c #FFF3EC",
"C 	c #FE863E",
"D 	c #FE9454",
"E 	c #FE9E65",
"F 	c #FE9455",
"G 	c #FEB589",
"H 	c #FEC29D",
"I 	c #FE721D",
"J 	c #FE701B",
"K 	c #FFDCC7",
"L 	c #FFB080",
"M 	c #FE6102",
"N 	c #FEBF99",
"O 	c #FFFEFE",
"P 	c #FECFB2",
"Q 	c #FE8A45",
"R 	c #FE9C62",
"S 	c #FED1B6",
"T 	c #FEE8DB",
"U 	c #FED2B8",
"V 	c #FEA16B",
"W 	c #FED0B4",
"X 	c #FE995B",
"Y 	c #FE711B",
"Z 	c #FFB182",
"` 	c #FED7C0",
" .	c #FEFDFB",
"..	c #FEBB94",
"+.	c #FE9150",
"@.	c #FEB68B",
"#.	c #FEF9F6",
"$.	c #FFFFFF",
"%.	c #FEF7F3",
"&.	c #FEB184",
"*.	c #FEA16A",
"=.	c #FEC7A6",
"-.	c #FEAD7C",
";.	c #FE6203",
">.	c #FE711C",
",.	c #FFDCC8",
"'.	c #FFB283",
").	c #FE6E17",
"!.	c #FEE1CF",
"~.	c #FEB990",
"{.	c #FE9659",
"].	c #FEB488",
"^.	c #FEF5EF",
"/.	c #FEF0E8",
"(.	c #FEAE7E",
"_.	c #FEA773",
":.	c #FECFB3",
"<.	c #FEA873",
"[.	c #FFDECA",
"}.	c #FFB284",
"|.	c #FEE3D2",
"1.	c #FEFDFC",
"2.	c #FEBC95",
"3.	c #FEA068",
"4.	c #FEC29E",
"5.	c #FEBC94",
"6.	c #FEA26C",
"7.	c #FEB78D",
"8.	c #FED9C3",
"9.	c #FE8840",
"0.	c #FFB386",
"a.	c #FEC09B",
"b.	c #FEA069",
"c.	c #FEA977",
"d.	c #FEAB79",
"e.	c #FEA976",
"f.	c #FEAC7C",
"g.	c #FEDBC7",
"h.	c #FEB182",
"i.	c #FE721E",
"j.	c #FFDECB",
"k.	c #FFB488",
"l.	c #FE6103",
"m.	c #FEC7A7",
"n.	c #FEAB7A",
"o.	c #FECAAA",
"p.	c #FEE2D1",
"q.	c #FEE7D9",
"r.	c #FED8C2",
"s.	c #FE680E",
"t.	c #FE731E",
"u.	c #FFDFCC",
"v.	c #FFB589",
"w.	c #FEE3D3",
"x.	c #FFFDFB",
"y.	c #FEBA91",
"z.	c #FE8F4D",
"A.	c #FEFBF9",
"B.	c #FE843A",
"C.	c #FE731F",
"D.	c #FFFCFB",
"E.	c #FEA169",
"F.	c #FE6001",
"G.	c #FE9A5D",
"H.	c #FFFAF7",
"I.	c #FE6F19",
"J.	c #FE7320",
"K.	c #FFE0CD",
"L.	c #FFB78C",
"M.	c #FEE4D3",
"N.	c #FEA46D",
"O.	c #FFF9F6",
"P.	c #FE7420",
"Q.	c #FFB88D",
"R.	c #FE6E16",
"S.	c #FEDECA",
"T.	c #FE904E",
"U.	c #FFB88E",
"V.	c #FE6204",
"W.	c #FE660A",
"X.	c #FEC8A7",
"Y.	c #FEC6A4",
"Z.	c #FE6508",
"`.	c #FEC39F",
" +	c #FEE9DC",
".+	c #FEE4D4",
"++	c #FFB98F",
"@+	c #FFFBF9",
"#+	c #FE8842",
"$+	c #FECFB1",
"%+	c #FECDAF",
"&+	c #FEEBDF",
"*+	c #FEB183",
"=+	c #FE8D48",
"-+	c #FFB990",
";+	c #FE8236",
">+	c #FEF8F5",
",+	c #FFF6F1",
"'+	c #FEF2EA",
")+	c #FE7019",
"!+	c #FFBA90",
"~+	c #FEDAC4",
"{+	c #FEE0CE",
"]+	c #FE6E18",
"^+	c #FE7725",
"/+	c #FE7421",
"(+	c #FE8033",
"_+	c #FE8339",
":+	c #FE8035",
"<+	c #FE8B46",
"[+	c #FFE4D6",
"}+	c #FFF7F0",
"|+	c #FFDFCD",
"1+	c #FFE0CE",
"                                                ",
"  . + @ # $ $ % % & * = + + - ; ; > > , ' ' ) ! ",
"  ~ { ] ^ ^ ^ ^ ^ ^ { / ( _ : < { { { { { { [ } ",
"  | 1 2 2 2 2 2 2 3 4 5 6 7 8 9 2 2 2 2 2 2 0 a ",
"  b 1 2 2 2 2 2 c d e f g h i j k 2 2 2 2 2 0 a ",
"  l 1 2 2 2 2 m n o p q r s t u v w 2 2 2 2 0 x ",
"  y 1 2 2 2 2 z A B j C D E z F G H I 2 2 2 J K ",
"  L M 2 2 2 < N O P Q R S T U V E W X 2 2 2 Y K ",
"  Z M 2 2 2 / `  ...+.@.#.$.%.&.*.=.-.;.2 2 >.,.",
"  '.M 2 2 2 ).!. .~.{.].^.$./.(._.:.<.M 2 2 >.[.",
"  }.M 2 2 2 9 |.1.2.4 3.4.:.5.6.7.8.9.2 2 2 I [.",
"  0.M 2 2 2 9 |.1.a.b.c.d.e.f.a.g.h.] 2 2 2 i.j.",
"  k.l.2 2 2 9 |.f m.n.o.6 p.q.r.e.s.2 2 2 2 t.u.",
"  v.;.2 2 2 9 w.x.y.z.~.A.o q.B.M 2 2 2 2 2 C.u.",
"  ~ ;.2 2 2 9 w.D.E.F.G.H.$.6 I.2 2 2 2 2 2 J.K.",
"  L.;.2 2 2 I.M.D.N.1 z O.$.6 I.2 2 2 2 2 2 P.K.",
"  Q.;.2 2 2 R.S. .j M T.%.$.6 I.2 2 2 2 2 2 P.K.",
"  U.V.2 2 2 W.X.o Y.Z.Y `. +.+I.2 2 2 2 2 2 P.K.",
"  ++V.2 2 2 2 3.@+/.X 1 s.#+$+I.2 2 2 2 2 2 P.K.",
"  ++V.2 2 2 2 Y %+O &+*+=+F W I.2 2 2 2 2 2 P.K.",
"  -+V.2 2 2 2 2 ;+o.>+f ,+'+6 )+2 2 2 2 2 2 P.K.",
"  !+V.2 2 2 2 2 2 R.s a.~+{+=.]+2 2 2 2 2 2 P.K.",
"  ' ^+C.J.P.P.P.P.P./+^+(+_+:+P./+/+/+/+/+/+<+[+",
"  }+K.u.u.|+|+|+|+K.K.K.K.K.K.K.1+1+1+1+1+1+[+  "};
